<?xml version="1.0" standalone="no"?>
<!DOCTYPE svg PUBLIC "-//W3C//DTD SVG 20010904//EN"
 "http://www.w3.org/TR/2001/REC-SVG-20010904/DTD/svg10.dtd">
<svg version="1.0" xmlns="http://www.w3.org/2000/svg"
 width="1280.000000pt" height="1011.000000pt" viewBox="0 0 1280.000000 1011.000000"
 preserveAspectRatio="xMidYMid meet">
<g transform="translate(0.000000,1011.000000) scale(0.100000,-0.100000)"
fill="#000000" stroke="none">
<path d="M4870 10107 c-3 -3 -68 -10 -145 -16 -713 -58 -1321 -224 -1928 -527
-686 -344 -1295 -847 -1756 -1453 -601 -790 -933 -1680 -1023 -2746 -38 -447
14 -1002 142 -1520 91 -368 198 -662 370 -1010 258 -524 556 -942 965 -1350
543 -543 1183 -944 1909 -1194 417 -144 805 -224 1286 -268 649 -59 1420 46
2072 282 131 48 237 94 183 81 -508 -130 -1014 -179 -1495 -146 -1001 70
-1930 441 -2700 1078 -135 112 -454 428 -561 557 -863 1031 -1245 2336 -1068
3640 85 625 296 1233 612 1765 90 150 204 286 428 506 519 509 1122 877 1814
1106 588 195 1239 272 1842 218 237 -21 624 -151 938 -314 535 -278 967 -667
1302 -1174 145 -218 240 -469 318 -843 65 -308 85 -738 50 -1059 -87 -789
-433 -1509 -995 -2070 -566 -565 -1263 -897 -2085 -992 -142 -16 -557 -16
-705 1 -304 34 -613 109 -906 220 -115 44 -65 12 136 -88 373 -185 751 -298
1190 -358 188 -25 716 -25 902 0 470 64 831 172 1218 366 1097 551 1848 1595
2020 2811 78 548 28 1135 -141 1657 -28 85 -48 157 -45 160 10 10 37 -20 140
-157 496 -659 816 -1447 907 -2235 11 -99 25 -193 29 -210 16 -54 4 616 -14
765 -116 979 -462 1825 -1065 2599 -455 582 -1036 1052 -1716 1386 -602 296
-1173 451 -1900 516 -141 13 -517 24 -525 16z"/>
<path d="M10151 9379 c-270 -30 -506 -112 -706 -244 -266 -176 -394 -404 -356
-634 6 -39 18 -73 29 -84 17 -17 22 -17 53 -4 19 8 82 46 141 85 222 146 427
240 651 296 285 73 672 99 672 46 0 -16 -4 -16 -268 -40 -219 -19 -436 -85
-677 -205 -155 -77 -289 -159 -385 -236 -71 -58 -85 -75 -85 -106 0 -9 64
-106 143 -217 79 -110 174 -245 211 -299 80 -115 124 -146 252 -173 67 -14 84
-21 84 -35 0 -10 -5 -21 -11 -25 -6 -3 -22 -30 -35 -58 -30 -64 -31 -133 -3
-187 18 -36 24 -40 47 -35 287 61 390 76 517 76 208 0 541 -84 771 -195 100
-48 196 -126 178 -144 -7 -8 -39 1 -115 32 -448 188 -746 220 -1172 125 -54
-12 -106 -27 -115 -34 -16 -12 -16 -16 2 -61 54 -141 111 -321 162 -508 31
-115 63 -217 71 -226 32 -37 310 -117 488 -141 191 -25 1224 -13 1528 18 52 5
57 8 57 31 0 75 -118 331 -271 588 -281 472 -504 677 -905 835 -55 21 -99 44
-99 50 0 6 41 27 90 46 306 118 675 338 1249 744 126 89 270 189 320 222 50
33 95 64 99 68 5 4 -22 18 -60 30 -37 13 -210 78 -383 145 -683 267 -1072 378
-1530 440 -139 19 -523 27 -639 14z"/>
</g>
</svg>
